# AST/ASF file generated using VICON BodyLanguage
# -----------------------------------------------
:version 1.10
:name VICON
:units
  mass 1.0
  length 0.45
  angle deg
:documentation
   .ast/.asf automatically generated from VICON data using
   VICON BodyBuilder and BodyLanguage model FoxedUp or BRILLIANT.MOD
:root
   order TX TY TZ RX RY RZ
   axis XYZ
   position 0 0 0  
   orientation 0 0 0 
:bonedata
  begin
     id 1 
     name lhipjoint
     direction 0.662698 -0.695252 0.27831 
     length 2.53073 
     axis 0 0 0  XYZ
  end
  begin
     id 2 
     name lfemur
     direction 0.34202 -0.939693 0  
     length 7.16147  
     axis 0 0 20  XYZ
    dof rx ry rz
    limits (-160.0 20.0)
           (-70.0 70.0)
           (-60.0 70.0)
  end
  begin
     id 3 
     name ltibia
     direction 0.34202 -0.939693 0   
     length 7.63967   
     axis 0 0 20   XYZ
    dof rx
    limits (-10.0 170.0)
  end
  begin
     id 4 
     name lfoot
     direction 0.0938457 -0.257721 0.961651   
     length 1.89793   
     axis -90 7.62852e-016 20   XYZ
    dof rx rz
    limits (-45.0 90.0)
           (-70.0 20.0)
  end
  begin
     id 5 
     name ltoes
     direction -0.00116841 -0.0030592 0.999995   
     length 0.955649   
     axis -90 7.62852e-016 20   XYZ
    dof rx
    limits (-90.0 20.0)
  end
  begin
     id 6 
     name rhipjoint
     direction -0.649445 -0.705948 0.282592   
     length 2.49238  
     axis 0 0 0  XYZ 
  end
  begin
     id 7 
     name rfemur
     direction -0.34202 -0.939693 0   
     length 6.90728   
     axis 0 0 -20   XYZ
    dof rx ry rz
    limits (-160.0 20.0)
           (-70.0 70.0)
           (-70.0 60.0)
  end
  begin
     id 8 
     name rtibia
     direction -0.34202 -0.939693 0   
     length 7.72868   
     axis 0 0 -20   XYZ
    dof rx
    limits (-10.0 170.0)
 end
 begin
     id 9 
     name rfoot
     direction -0.0920068 -0.252865 0.963117   
     length 1.97476  
     axis -90 -7.62852e-016 -20   XYZ
    dof rx rz
    limits (-45.0 90.0)
           (-20.0 70.0)
  end
  begin
     id 10 
     name rtoes
     direction 0.000391322 0.00230649 0.999997   
     length 0.992641   
     axis -90 -7.62852e-016 -20   XYZ
    dof rx
    limits (-90.0 20.0)
  end
  begin
     id 11 
     name lowerback
     direction -0.00875327 0.998321 -0.0572635   
     length 2.20024   
     axis 0 0 0   XYZ
    dof rx ry rz
    limits (-20.0 45.0)
           (-30.0 30.0)
           (-30.0 30.0)
  end
  begin
     id 12 
     name upperback
     direction 0.00753931 0.999972 -0.000360425   
     length 2.20538   
     axis 0 0 0   XYZ
    dof rx ry rz
    limits (-20.0 45.0)
           (-30.0 30.0)
           (-30.0 30.0)
  end
  begin
     id 13 
     name thorax
     direction 0.0117767 0.999601 0.0256663   
     length 2.21508   
     axis 0 0 0   XYZ
    dof rx ry rz
    limits (-20.0 45.0)
           (-30.0 30.0)
           (-30.0 30.0)
  end
  begin
     id 14 
     name lowerneck
     direction 0.060228 0.994909 0.0807986   
     length 1.7607   
     axis 0 0 0   XYZ
    dof rx ry rz
    limits (-20.0 45.0)
           (-30.0 30.0)
           (-30.0 30.0)
  end
  begin
     id 15 
     name upperneck
     direction -0.0563647 0.959594 -0.275685   
     length 1.75612   
     axis 0 0 0   XYZ
    dof rx ry rz
    limits (-20.0 45.0)
           (-30.0 30.0)
           (-30.0 30.0)
  end
  begin
     id 16
     name head
     direction -0.0161544 0.99458 -0.102714  
     length 1.79288  
     axis 0 0 0   XYZ
    dof rx ry rz
    limits (-20.0 45.0)
           (-30.0 30.0)
           (-30.0 30.0)
  end
  begin
     id 17 
     name lclavicle
     direction 0.93913 0.332189 -0.087669  
     length 3.52087  
     axis 0 0 0   XYZ
    dof ry rz
    limits (-20.0 10.0)
           (0.0 20.0)
  end
  begin
     id 18 
     name lhumerus
     direction 1 -4.48974e-011 -2.70836e-027   
     length 5.35289   
     axis -180 -30 -90   XYZ
    dof rx ry rz
    limits (-60.0 90.0)
           (-90.0 90.0)
           (-90.0 90.0)
  end
  begin
     id 19
     name lradius
     direction 1 -4.48961e-011 -9.76021e-027   
     length 3.27727   
     axis -180 -30 -90   XYZ
    dof rx
    limits (-10.0 170.0)
  end
  begin
     id 20
     name lwrist
     direction 1 -4.49103e-011 -2.23668e-026   
     length 1.63864   
     axis 1.44924e-014 90 90   XYZ
    dof ry
    limits (-180.0 0.0)
 end
  begin
     id 21 
     name lhand
     direction 1 3.0697e-005 0.000161777   
     length 0.54443   
     axis 2.85318e-014 90 90   XYZ
    dof rx rz
    limits (-90.0 90.0)
           (-45.0 45.0)
  end
  begin
     id 22 
     name lfingers
     direction 1 -4.49027e-011 -8.9447e-026   
     length 0.438912   
     axis 5.70628e-014 90 90   XYZ
    dof rx
    limits (0.0 90.0)
  end
  begin
     id 23
     name lthumb
     direction 0.707058 2.6516e-005 0.707156   
     length 0.630274   
     axis -90 45 -3.53137e-014   XYZ
    dof rx rz
    limits (-45.0 45.0)
           (-45.0 45.0)
  end
  begin
     id 24 
     name rclavicle
     direction -0.95274 0.284984 -0.105215   
     length 3.43401  
     axis 0 0 0   XYZ 
    dof ry rz
    limits (-10.0 20.0)
           (-20.0 0.0)
  end
  begin
     id 25 
     name rhumerus
     direction -0.999999 -0.000575019 -0.00106829  
     length 5.52077   
     axis -180 30 90   XYZ
    dof rx ry rz
    limits (-90.0 60.0)
           (-90.0 90.0)
           (-90.0 90.0)
  end
  begin
     id 26 
     name rradius
     direction -1 -4.4879e-011 -6.35415e-027   
     length 3.32364   
     axis -180 30 90   XYZ
    dof rx
    limits (-10.0 170.0)
  end
  begin
     id 27 
     name rwrist
     direction -1 -4.49048e-011 -9.98542e-027   
     length 1.66182   
     axis 6.32482e-015 -90 -90   XYZ
    dof ry
    limits (-180.0 0.0)
  end
  begin
     id 28
     name rhand
     direction -1 -4.48978e-011 -1.99771e-026   
     length 0.732235   
     axis 1.27479e-014 -90 -90   XYZ
    dof rx rz
    limits (-90.0 90.0)
           (-45.0 45.0)
  end
  begin
     id 29
     name rfingers
     direction -1 -4.49144e-011 -3.99245e-026   
     length 0.590347   
     axis 2.5496e-014 -90 -90   XYZ
    dof rx
    limits (0.0 90.0)
  end
  begin
     id 30
     name rthumb
     direction -0.707107 -6.35121e-011 0.707107   
     length 0.847624   
     axis -90 -45 -2.82974e-014   XYZ
    dof rx rz
    limits (-45.0 45.0)
           (-45.0 45.0)
  end
:hierarchy
  begin
    root lhipjoint rhipjoint lowerback
    lhipjoint lfemur
    lfemur ltibia
    ltibia lfoot
    lfoot ltoes
    rhipjoint rfemur
    rfemur rtibia
    rtibia rfoot
    rfoot rtoes
    lowerback upperback
    upperback thorax
    thorax lowerneck lclavicle rclavicle
    lowerneck upperneck
    upperneck head
    lclavicle lhumerus
    lhumerus lradius
    lradius lwrist
    lwrist lhand lthumb
    lhand lfingers
    rclavicle rhumerus
    rhumerus rradius
    rradius rwrist
    rwrist rhand rthumb
    rhand rfingers
  end

#!OML:ASF G:\Work\Work\Patient Classification 1\Elijah\terrain1\Elijah.ASF
:FULLY-SPECIFIED
:DEGREES
139
root 15.6341 23.1754 4.2789 4.39582 -1.56183 -3.69383
lowerback 4.65771 1.34315 4.61456
upperback 0.642255 2.04468 1.17855
thorax -1.83154 0.991595 -1.49688
lowerneck -12.7091 13.2032 10.1255
upperneck 36.2152 22.0736 -11.3226
head 18.3484 9.13525 -2.27702
rclavicle 5.69021e-015 8.15017e-015
rhumerus -39.5531 -3.47009 -80.4989
rradius 45.2307
rwrist -2.6782
rhand -7.48337 19.0761
rfingers 7.12502
rthumb 18.4059 -10.0731
lclavicle 5.69021e-015 8.15017e-015
lhumerus -51.8131 33.6774 52.842
lradius 26.1449
lwrist -0.601096
lhand -9.6507 24.8433
lfingers 7.12502
lthumb 16.32 54.1766
rfemur -9.15634 -4.22784 29.3638
rtibia 34.9325
rfoot -15.738 -3.44912
rtoes -3.5081
lfemur -34.8899 9.82022 -21.0188
ltibia 52.9461
lfoot -0.821587 -7.74356
ltoes -12.9413
140
root 15.6395 23.133 4.37493 4.4241 -2.04117 -3.6362
lowerback 4.5165 1.31988 4.44335
upperback 0.782601 1.99162 1.1768
thorax -1.61674 0.972588 -1.39384
lowerneck -13.0869 13.4663 9.96395
upperneck 36.0268 22.4859 -11.3638
head 18.3883 9.2518 -2.13561
rclavicle -1.26974e-014 -1.72943e-014
rhumerus -39.4739 -3.0351 -80.4119
rradius 45.9808
rwrist -2.86187
rhand -7.38008 19.2141
rfingers 7.12502
rthumb 18.5052 -9.9257
lclavicle -1.26974e-014 -1.72943e-014
lhumerus -52.471 34.0747 52.0345
lradius 26.1122
lwrist -0.972486
lhand -8.82169 24.8932
lfingers 7.12502
lthumb 17.1181 54.1591
rfemur -9.72559 -4.20242 29.1621
rtibia 36.555
rfoot -15.8251 -3.10652
rtoes -3.17571
lfemur -34.4176 10.0485 -21.1448
ltibia 50.7399
lfoot 0.230823 -7.4866
ltoes -13.1451
141
root 15.6523 23.0864 4.47768 4.4506 -2.4857 -3.38186
lowerback 4.17013 1.27714 4.03511
upperback 1.00136 1.88862 1.13215
thorax -1.21538 0.933363 -1.19352
lowerneck -13.6081 13.7837 10.0579
upperneck 35.9982 22.9857 -11.4966
head 18.6397 9.40527 -2.03816
rclavicle 2.95692e-015 -1.0138e-014
rhumerus -39.3966 -2.42965 -80.399
rradius 46.9751
rwrist -3.55087
rhand -7.46913 19.505
rfingers 7.12502
rthumb 18.4196 -9.64296
lclavicle 2.95692e-015 -1.0138e-014
lhumerus -53.0156 34.722 51.1379
lradius 25.9306
lwrist -1.34826
lhand -8.5483 25.0114
lfingers 7.12502
lthumb 17.3812 54.2543
rfemur -10.2728 -4.20186 28.6841
rtibia 38.201
rfoot -16.4088 -2.56994
rtoes -4.55421
lfemur -33.8448 10.2131 -21.5103
ltibia 48.4421
lfoot 1.53042 -7.12651
ltoes -12.3467
142
root 15.6648 23.0322 4.58156 4.50182 -2.81078 -3.40255
lowerback 4.02059 1.44178 4.32393
upperback 0.147395 2.13786 0.908886
thorax -1.97931 1.02985 -1.60647
lowerneck -9.92489 12.8874 11.1882
upperneck 35.5438 21.6104 -12.0392
head 17.5002 9.20389 -3.0591
rclavicle 1.8723e-014 5.86415e-015
rhumerus -41.9645 -2.42471 -80.2361
rradius 48.5779
rwrist -4.16232
rhand -7.16467 19.2133
rfingers 7.12502
rthumb 18.7124 -9.90664
lclavicle 1.8723e-014 5.86415e-015
lhumerus -54.7796 32.6834 50.0493
lradius 25.971
lwrist -0.826422
lhand -8.52107 24.292
lfingers 7.12502
lthumb 17.4074 53.5325
rfemur -10.738 -4.35116 28.5165
rtibia 39.8138
rfoot -17.096 -2.0518
rtoes -6.49422
lfemur -33.2161 10.1997 -21.5155
ltibia 46.0822
lfoot 2.87374 -6.90142
ltoes -12.7852
143
root 15.6781 22.9809 4.68786 4.48293 -3.13354 -3.21111
lowerback 3.75211 1.26339 4.04837
upperback 0.964816 1.84682 0.885551
thorax -1.01257 0.915891 -1.44137
lowerneck -12.7471 13.4895 10.5583
upperneck 35.4584 22.4861 -11.985
head 18.2091 9.29019 -2.51406
rclavicle -4.67144e-015 9.44227e-015
rhumerus -40.5489 -1.9683 -80.2971
rradius 49.5686
rwrist -4.31169
rhand -6.78942 18.5307
rfingers 7.12502
rthumb 19.0733 -10.5541
lclavicle -4.67144e-015 9.44227e-015
lhumerus -54.381 33.5553 50.2366
lradius 26.3507
lwrist -0.107596
lhand -7.87431 24.7325
lfingers 7.12502
lthumb 18.0298 53.9168
rfemur -11.0528 -4.66147 28.1011
rtibia 41.3555
rfoot -17.8401 -1.52635
rtoes -8.79091
lfemur -32.4216 10.0171 -21.6805
ltibia 43.6952
lfoot 4.36432 -6.5088
ltoes -12.9309
144
root 15.6961 22.9301 4.79911 4.3889 -3.59457 -2.78668
lowerback 3.50099 1.37436 3.92536
upperback 1.17965 1.96778 0.5848
thorax -0.638248 0.986454 -1.67515
lowerneck -13.7016 13.6493 9.99296
upperneck 35.7868 22.674 -11.4198
head 18.4541 9.28011 -2.06754
rclavicle -4.9075e-015 1.19271e-015
rhumerus -40.6193 -2.22044 -80.1237
rradius 50.5863
rwrist -4.41613
rhand -6.34596 17.9932
rfingers 7.12502
rthumb 19.4998 -11.049
lclavicle -4.9075e-015 1.19271e-015
lhumerus -54.5365 32.7509 50.3618
lradius 26.7975
lwrist 0.695406
lhand -7.35434 25.5153
lfingers 7.12502
lthumb 18.53 54.6527
rfemur -11.2167 -4.86507 27.3751
rtibia 42.7719
rfoot -18.6007 -0.951222
rtoes -10.7734
lfemur -31.4414 9.72701 -22.0572
ltibia 41.2691
lfoot 5.57537 -6.20445
ltoes -15.3578
145
root 15.7052 22.862 4.90944 4.33644 -4.1306 -2.79858
lowerback 3.53581 1.59006 4.02471
upperback 0.279961 2.28525 0.496089
thorax -1.55694 1.11507 -1.85215
lowerneck -9.79345 12.7453 10.8932
upperneck 35.0306 21.366 -12.1256
head 17.1076 9.07759 -3.11
rclavicle -1.32689e-014 -1.55052e-014
rhumerus -43.2183 -2.08482 -79.7251
rradius 52.0803
rwrist -4.84595
rhand -5.90367 17.4563
rfingers 7.12502
rthumb 19.925 -11.5423
lclavicle -1.32689e-014 -1.55052e-014
lhumerus -56.6475 30.6945 49.2901
lradius 26.9456
lwrist 1.08603
lhand -7.54455 24.8605
lfingers 7.12502
lthumb 18.347 54.0153
rfemur -11.3988 -4.73448 27.211
rtibia 44.1484
rfoot -19.2561 -0.61247
rtoes -12.5723
lfemur -30.4539 9.48446 -21.8887
ltibia 38.8279
lfoot 6.8192 -5.95081
ltoes -17.7461
146
root 15.7081 22.803 5.02293 4.26536 -4.62086 -2.97299
lowerback 3.48383 1.24828 3.52436
upperback 0.835789 1.79783 0.840551
thorax -1.01271 0.89089 -1.18794
lowerneck -11.7539 13.6655 10.5439
upperneck 34.9926 22.8241 -12.2577
head 17.811 9.4708 -2.61402
rclavicle -1.85615e-014 1.2424e-014
rhumerus -42.1581 -0.647321 -79.8377
rradius 53.0026
rwrist -5.4982
rhand -5.71869 16.9548
rfingers 7.12502
rthumb 20.1028 -12.0252
lclavicle -1.85615e-014 1.2424e-014
lhumerus -57.5118 31.9715 48.5278
lradius 27.314
lwrist 1.59178
lhand -7.72519 25.2765
lfingers 7.12502
lthumb 18.1732 54.4475
rfemur -11.4955 -4.55079 27.2699
rtibia 45.4952
rfoot -19.9642 -0.409469
rtoes -14.1539
lfemur -29.6439 9.04153 -21.4068
ltibia 36.3442
lfoot 8.7768 -5.1714
ltoes -15.7899
